<?xml version="1.0" standalone="no"?>
<!DOCTYPE svg PUBLIC "-//W3C//DTD SVG 20010904//EN"
 "http://www.w3.org/TR/2001/REC-SVG-20010904/DTD/svg10.dtd">
<svg version="1.0" xmlns="http://www.w3.org/2000/svg"
 width="128.000000pt" height="128.000000pt" viewBox="0 0 128.000000 128.000000"
 preserveAspectRatio="xMidYMid meet">
<metadata>
Created by potrace 1.11, written by Peter Selinger 2001-2013
</metadata>
<g transform="translate(0.000000,128.000000) scale(0.100000,-0.100000)"
fill="#000000" stroke="none">
<path d="M530 1273 c-176 -29 -370 -171 -451 -328 -64 -123 -74 -166 -73 -305
0 -109 3 -135 27 -203 156 -449 716 -584 1051 -253 126 124 188 263 190 426 1
40 -1 45 -19 42 -11 -2 -53 -5 -93 -7 -53 -3 -80 -10 -98 -24 -14 -11 -33 -17
-42 -14 -35 13 -72 45 -72 63 0 10 -30 48 -66 84 l-66 67 26 24 c21 20 26 33
26 74 0 48 -2 53 -41 81 -23 16 -46 27 -52 23 -9 -6 -8 3 7 84 3 12 16 46 30
75 14 30 22 56 17 61 -27 27 -212 45 -301 30z"/>
<path d="M1027 1233 c-49 -15 -66 -33 -88 -95 -11 -31 -10 -43 5 -83 10 -26
24 -49 31 -51 18 -7 185 72 185 88 0 7 -12 46 -26 86 -29 79 -29 79 -107 55z"/>
<path d="M1116 963 l-58 -36 6 -46 c7 -55 27 -74 63 -60 13 5 35 9 48 9 36 0
38 17 20 129 -7 41 -19 42 -79 4z"/>
<path d="M963 900 c-32 -13 -39 -48 -15 -73 26 -26 48 -17 57 23 9 40 -10 62
-42 50z"/>
<path d="M1044 735 c-9 -22 3 -33 47 -40 47 -8 64 3 54 34 -5 17 -14 21 -51
21 -30 0 -46 -5 -50 -15z"/>
</g>
</svg>
